<svg height="480pt" viewBox="-110 -110 700 700" width="480pt"
    xmlns="http://www.w3.org/2000/svg">
    <path stroke="#EEEEEE" stroke-width="7" fill="#FFFFFF" d="m48 351.683594h16v16h-16zm0 0"/>
    <path stroke="#EEEEEE" stroke-width="7" fill="#FFFFFF" d="m64 383.683594h16v16h-16zm0 0"/>
    <path stroke="#EEEEEE" stroke-width="7" fill="#FFFFFF" d="m400 431.683594h16v16h-16zm0 0"/>
    <path stroke="#EEEEEE" stroke-width="7" fill="#FFFFFF" d="m384 319.683594h16v16h-16zm0 0"/>
    <path stroke="#EEEEEE" stroke-width="7" fill="#FFFFFF" d="m416 319.683594h16v16h-16zm0 0"/>
    <path stroke="#EEEEEE" stroke-width="7" fill="#FFFFFF" d="m64 223.683594c-17.671875 0-32 14.324218-32 32v32h64v-32c0-17.675782-14.328125-32-32-32zm16 48h-32v-16c0-8.835938 7.164062-16 16-16s16 7.164062 16 16zm0 0"/>
    <path stroke="#EEEEEE" stroke-width="7" fill="#FFFFFF" d="m272 239.683594c0-17.675782-14.328125-32-32-32s-32 14.324218-32 32v32h64zm-16 16h-32v-16c0-8.835938 7.164062-16 16-16s16 7.164062 16 16zm0 0"/>
    <path stroke="#EEEEEE" stroke-width="7" fill="#FFFFFF" d="m448 255.683594c0-17.675782-14.328125-32-32-32s-32 14.324218-32 32v32h64zm-16 16h-32v-16c0-8.835938 7.164062-16 16-16s16 7.164062 16 16zm0 0"/>
    <path stroke="#EEEEEE" stroke-width="7" fill="#FFFFFF" d="m8 111.683594h8v64h-16v304h480v-304h-16v-64h8c2.855469-.007813 5.492188-1.535156 6.917969-4.007813 1.421875-2.472656 1.421875-5.519531-.007813-7.992187l-56-96c-1.546875-2.304688-4.136718-3.683594-6.910156-3.683594s-5.363281 1.378906-6.910156 3.683594l-56 96c-1.429688 2.472656-1.429688 5.519531-.007813 7.992187 1.425781 2.472657 4.0625 4 6.917969 4.007813h8v64h-16v128h-16v-16h-16v-104c0-4.417969-3.582031-8-8-8h-8v-16c0-4.417969-3.582031-8-8-8h-8v-27.058594l43.574219-21.742188c2.71875-1.355468 4.433593-4.125 4.433593-7.160156s-1.714843-5.808594-4.433593-7.160156l-48-24c-2.472657-1.234375-5.410157-1.105469-7.765625.34375-2.355469 1.449219-3.796875 4.011719-3.808594 6.777344v80h-8c-4.417969 0-8 3.582031-8 8v16h-32v-16c0-4.417969-3.582031-8-8-8h-8v-27.058594l43.574219-21.742188c2.71875-1.355468 4.433593-4.125 4.433593-7.160156s-1.714843-5.808594-4.433593-7.160156l-48-24c-2.472657-1.234375-5.410157-1.105469-7.765625.34375-2.355469 1.449219-3.796875 4.011719-3.808594 6.777344v80h-8c-4.417969 0-8 3.582031-8 8v16h-8c-4.417969 0-8 3.582031-8 8v104h-16v16h-16v-128h-16v-64h8c2.855469-.007813 5.492188-1.535156 6.917969-4.007813 1.421875-2.472656 1.421875-5.519531-.007813-7.992187l-56-96c-1.546875-2.304688-4.136718-3.683594-6.910156-3.683594s-5.363281 1.378906-6.910156 3.683594l-56 96c-1.429688 2.472656-1.429688 5.519531-.007813 7.992187 1.425781 2.472657 4.0625 4 6.917969 4.007813zm375.265625-32h24.734375v-16h-15.398438l23.398438-40.121094 9.398438 16.121094h-9.398438v16h18.734375l23.335937 40h-84.140624zm.734375 96v-64h64v64h-16v16h-32v-16zm-16 208h48v-16h-48v-176h16v16h64v-16h16v240h-32v16h32v16h-96zm-80-299.058594 22.113281 11.058594-22.113281 11.054687zm-80 0 22.113281 11.058594-22.113281 11.054687zm24 331.058594h-16v16h16v32h-48v-40c.027344-22.082032 17.917969-39.972656 40-40h8zm64 48h-48v-32h16v-16h-16v-32h8c22.082031.027344 39.972656 17.917968 40 40zm-120-272h8c4.417969 0 8-3.582032 8-8v-16h16v16c0 4.417968 3.582031 8 8 8h48c4.417969 0 8-3.582032 8-8v-16h16v16c0 4.417968 3.582031 8 8 8h8v96h-16v16h-16v-16h-64v16h-16v-16h-16zm-48 216h24v-16h-24v-40h64v-16h-64v-16h32v-16h16v16h48v-16h32v16h48v-16h16v16h32v16h-112v16h112v16h-16v16h16v32h-24v16h24v32h-40v-40c-.035156-30.914063-25.085938-55.964844-56-56h-32c-30.914062.035156-55.964844 25.085937-56 56v40h-40zm-16-56h-32v16h32v96h-96v-16h32v-16h-32v-240h16v16h64v-16h16zm-80-176v-64h64v64h-16v16h-32v-16zm-.734375-96h24.734375v-16h-15.398438l23.398438-40.121094 9.398438 16.121094h-9.398438v16h18.734375l23.335937 40h-84.140624zm0 0"/>
    <path stroke="#EEEEEE" stroke-width="7" fill="#FFFFFF" d="m56 135.683594h16v16h-16zm0 0"/>
    <path stroke="#EEEEEE" stroke-width="7" fill="#FFFFFF" d="m408 135.683594h16v16h-16zm0 0"/>
    <path stroke="#EEEEEE" stroke-width="7" fill="#FFFFFF" d="m208 335.683594h16v16h-16zm0 0"/>
</svg>